<svg xmlns="http://www.w3.org/2000/svg" viewBox="0 0 6922.48858 1187"><g fill="none" fill-rule="evenodd"><path d="M.48858462 0h6922v1187h-6922z"/><path d="M6.243376 721.514469c-18.052397 53.582987 4.083796 112.471142 52.962413 140.894087L313.42638 997.470185c29.349784 15.592874 64.52863 15.585491 93.871867-.0197l258.106361-137.264991c34.366988-19.677106 55.455822-56.297552 55.455822-95.952178V595.513944c0-2.559532-.654951-5.076491-1.902533-7.311384-4.037966-7.233532-13.17532-9.82405-20.408852-5.786084l-338.181496 188.78266-247.44585-137.790174-50.381351 28.13463c-25.805282 14.960609-46.864075 31.731977-56.296972 59.970877ZM.000001 589.856637c0 2.559532.65495 5.076491 1.902532 7.311384 4.037966 7.233532 13.17532 9.82405 20.408852 5.786084l338.181496-188.78266 247.44585 137.790174 50.381351-28.13463c25.805282-14.960609 46.864075-31.731977 56.296972-59.970877 18.052397-53.582987-4.083796-112.471142-52.962412-140.894087L407.43405 187.9003962c-29.349784-15.5928742-64.528629-15.5854916-93.871867.0197L55.455822 325.1850873C21.088834 344.862193.000001 381.482639.000001 421.137265Z" fill="#37F" fill-rule="nonzero"/><g fill="#909FBD" fill-rule="nonzero"><path d="M3437.9080611 406.8911055h183.7282339V668.859316c0 21.746459-4.679944 40.735215-14.039833 56.966267-9.359889 16.231053-22.660712 28.801017-39.90247 37.709892-17.241757 8.908876-37.716684 13.363313-61.42478 13.363313-33.5651866 0-59.8122712-8.87763-78.7412541-26.632891-18.9289828-17.755261-30.95012311-41.062607-36.0634209-69.922038l63.9189393-13.065807c2.9832099 15.4051 8.6344635 27.450693 16.953761 36.136779 8.3192975 8.686085 19.4886747 13.029128 33.5081307 13.029128 13.628215 0 24.862799-4.266968 33.703751-12.800905 8.840951-8.533936 13.261427-21.755968 13.261427-39.666095v-200.82871h-114.9024849v-56.2571435ZM3925.961961 771.005726h-37.078201c-9.905996 0-18.765966-2.347443-26.579911-7.042331s-13.898552-11.52258-18.253821-20.483078c-4.355269-8.960497-6.532904-19.564749-6.532904-31.812754v-5.860459l16.538068 18.437215h-18.624685c-4.580775 17.3287-13.924363 30.497751-28.030761 39.507154-14.106399 9.009402-31.28295 13.514104-51.529653 13.514104-27.783519 0-49.157756-7.36429-64.12271-22.09287-14.964955-14.72858-22.447432-34.12352-22.447432-58.184819 0-18.752381 4.602512-34.260725 13.807534-46.525033 9.205023-12.264307 22.485469-21.500574 39.841339-27.708803 17.355869-6.208228 38.338865-9.312342 62.948988-9.312342h46.223452v-19.985876c0-14.95952-3.98984-26.684513-11.969519-35.174979-7.979679-8.490465-20.913714-12.735697-38.802105-12.735697-15.50291 0-28.083742 3.405695-37.742495 10.217086-9.658754 6.811391-17.647942 14.955445-23.967565 24.432163l-39.751679-35.611049c9.998372-15.731134 23.364402-28.383965 40.09809-37.958493 16.733688-9.574528 38.742333-14.361792 66.025933-14.361792 36.754885 0 64.751684 8.427976 83.990399 25.283926 19.238715 16.855951 28.858073 40.890081 28.858073 72.10239v128.294326h27.101565v53.062011Zm-93.840697-117.437398h-42.791945c-17.518887 0-30.615939 2.863664-39.291156 8.590992-8.675218 5.727329-13.012827 14.095531-13.012827 25.104608v8.754009c0 10.759118 3.64207 18.933059 10.92621 24.521822 7.28414 5.588764 17.332775 8.383146 30.145906 8.383146 10.23203 0 19.363695-1.499756 27.394996-4.499267 8.031301-2.999512 14.477262-7.440365 19.337883-13.322559 4.860622-5.882194 7.290933-13.099769 7.290933-21.652724v-35.880027ZM4100.779334 771.005726h-79.03876l-91.110164-272.482803h66.005556l37.754722 117.364041 26.636967 96.954321h3.708635l26.645118-96.954321 37.322727-117.364041h63.340229zM4457.365267 771.005726h-37.0782c-9.906 0-18.76597-2.347443-26.57991-7.042331-7.813947-4.694888-13.898554-11.52258-18.253823-20.483078-4.355269-8.960497-6.532904-19.564749-6.532904-31.812754v-5.860459l16.538068 18.437215h-18.624684c-4.580776 17.3287-13.924363 30.497751-28.030762 39.507154-14.106398 9.009402-31.282949 13.514104-51.529652 13.514104-27.78352 0-49.157756-7.36429-64.122711-22.09287-14.964954-14.72858-22.447431-34.12352-22.447431-58.184819 0-18.752381 4.602511-34.260725 13.807534-46.525033 9.205023-12.264307 22.485469-21.500574 39.841338-27.708803 17.35587-6.208228 38.338866-9.312342 62.948989-9.312342h46.223451v-19.985876c0-14.95952-3.989839-26.684513-11.969518-35.174979-7.979679-8.490465-20.913714-12.735697-38.802106-12.735697-15.50291 0-28.083742 3.405695-37.742495 10.217086-9.658753 6.811391-17.647941 14.955445-23.967565 24.432163l-39.751679-35.611049c9.998372-15.731134 23.364402-28.383965 40.09809-37.958493 16.733689-9.574528 38.742333-14.361792 66.025934-14.361792 36.754884 0 64.751684 8.427976 83.990396 25.283926 19.23872 16.855951 28.85808 40.890081 28.85808 72.10239v128.294326h27.10156v53.062011Zm-93.840697-117.437398h-42.791945c-17.518886 0-30.615938 2.863664-39.291156 8.590992-8.675218 5.727329-13.012827 14.095531-13.012827 25.104608v8.754009c0 10.759118 3.64207 18.933059 10.92621 24.521822 7.28414 5.588764 17.332776 8.383146 30.145906 8.383146 10.23203 0 19.363695-1.499756 27.394996-4.499267 8.031301-2.999512 14.477262-7.440365 19.337884-13.322559 4.860621-5.882194 7.290932-13.099769 7.290932-21.652724v-35.880027ZM4616.771367 777.265577c-30.92975 0-57.40506-5.590123-79.42593-16.770367-22.02087-11.180245-40.70125-25.700978-56.04114-43.5622l46.31311-45.14754c12.37841 14.834541 26.33131 26.012069 41.85867 33.532583 15.52736 7.520515 32.67267 11.280772 51.43592 11.280772 21.42042 0 37.46672-4.66636 48.1389-13.999079 10.67217-9.332719 16.00826-21.734233 16.00826-37.204539 0-8.047603-1.46308-15.151066-4.38923-21.310389-2.92616-6.159323-7.99734-11.321526-15.21356-15.486609-7.21621-4.165082-17.22817-7.250178-30.03587-9.255286l-34.14389-5.314352c-24.3656-3.988481-44.62725-10.46297-60.78494-19.423468-16.1577-8.960497-28.23589-20.722169-36.23459-35.285015-7.9987-14.562846-11.99805-31.671473-11.99805-51.325881 0-21.811665 5.34832-40.7202712 16.04494-56.725817 10.69663-16.0055459 25.91019-28.4464548 45.64067-37.3227267 19.73048-8.876272 43.13428-13.314408 70.21139-13.314408 27.47379 0 51.46445 4.6133792 71.97198 13.8401376 20.50753 9.2267583 38.03457 22.4746011 52.58111 39.7435282l-46.84291 44.5932819c-9.00397-11.215565-19.98588-20.2711556-32.94573-27.1667718-12.95984-6.8956163-29.18818-10.3434244-48.685-10.3434244-19.37728 0-34.10586 3.6950505-44.18574 11.0851514-10.07988 7.3901009-15.11982 17.8802408-15.11982 31.4704188 0 9.27023 1.78503 16.872253 5.3551 22.806069 3.57007 5.933816 9.11129 10.624629 16.62365 14.072437 7.51237 3.447808 17.0801 6.299246 28.70321 8.554313l34.15205 6.039778c24.62642 4.23844 44.90709 10.878663 60.84199 19.920669 15.93491 9.042006 27.77401 20.661037 35.51732 34.857095 7.7433 14.196058 11.61495 31.316912 11.61495 51.36256 0 22.990822-5.34967 43.149224-16.04901 60.475207-10.69935 17.325983-26.27154 30.878124-46.71658 40.656423-20.44504 9.778299-45.17879 14.667449-74.20123 14.667449ZM4913.722737 777.265577c-40.11303 0-71.05636-12.87698-92.82999-38.630938-21.77363-25.753958-32.66044-60.439886-32.66044-104.057784 0-43.612463 10.88681-78.234543 32.66044-103.866238 21.77363-25.631696 52.71696-38.447544 92.82999-38.447544 27.51726 0 50.24454 6.156606 68.18184 18.469819 17.93729 12.313212 30.85639 29.158295 38.75727 50.535249l-54.44765 24.354729c-3.15166-11.46009-9.09091-20.893336-17.81775-28.299739-8.72684-7.406403-20.28474-11.109604-34.67371-11.109604-18.31223 0-32.16052 5.848232-41.54486 17.544697-9.38434 11.696465-14.07651 27.162697-14.07651 46.398695v49.5816c0 18.888229 4.69217 34.267518 14.07651 46.137867 9.38434 11.87035 23.23263 17.805525 41.54486 17.805525 15.81808 0 28.15846-4.12297 37.02115-12.36891 8.86269-8.24594 15.71755-18.424989 20.56459-30.537147l51.21992 24.387333c-8.93877 24.03413-22.68924 42.059727-41.25144 54.076792-18.56219 12.017065-41.08027 18.025598-67.55422 18.025598ZM5128.493117 771.005726h-66.73914V498.522923h66.73914v56.542423h2.60827c2.39635-9.672338 6.53018-18.798569 12.40151-27.378693 5.87133-8.580125 13.71788-15.585778 23.53965-21.016958 9.82177-5.431181 21.91083-8.146772 36.26719-8.146772h14.33734v63.063101h-20.84172c-14.95408 0-27.51454 1.509265-37.68136 4.527795-10.16682 3.01853-17.81368 7.585721-22.94056 13.701573-5.12688 6.115852-7.69032 14.25719-7.69032 24.424012v166.766322ZM5288.178317 459.3092002c-13.59562 0-23.52199-3.215509-29.77912-9.646527-6.25714-6.431018-9.3857-14.4745451-9.3857-24.1305815v-10.0907481c0-9.8951278 3.12856-17.9970694 9.3857-24.30582466 6.25713-6.30875529 16.1835-9.46313294 29.77912-9.46313294 13.69885 0 23.65239 3.15437765 29.86062 9.46313294 6.20823 6.30875526 9.31234 14.41069686 9.31234 24.30582466v10.0907481c0 9.6560364-3.10411 17.6995635-9.31234 24.1305815-6.20823 6.431018-16.16177 9.646527-29.86062 9.646527Zm-33.36957 311.6965258V498.522923h66.73913v272.482803h-66.73913ZM5386.462197 875.336563v-376.81364h66.73913v45.286104h2.45341c4.74922-15.812642 13.96647-28.356795 27.65174-37.632459 13.68528-9.275663 29.49928-13.913495 47.44201-13.913495 23.09406 0 42.50802 5.554802 58.24187 16.664406 15.73385 11.109604 27.72782 27.245563 35.98191 48.407878 8.25409 21.162315 12.38114 46.909481 12.38114 77.241498 0 30.234208-4.12705 56.019411-12.38114 77.35561-8.25409 21.3362-20.24806 37.559102-35.98191 48.668706-15.73385 11.109604-35.14781 16.664406-58.24187 16.664406-17.94273 0-33.6793-4.724775-47.20971-14.174323-13.5304-9.449548-22.82508-21.906759-27.88404-37.371632h-2.45341v149.616941h-66.73913Zm122.88216-153.284822c17.27436 0 31.28295-5.857741 42.02577-17.573225 10.74281-11.715483 16.11422-27.117867 16.11422-46.207149v-47.014084c0-19.333808-5.37141-34.797323-16.11422-46.390543-10.74282-11.593221-24.75141-17.389832-42.02577-17.389832-10.55806 0-20.09863 1.770092-28.62169 5.310277-8.52307 3.540184-15.24073 8.5842-20.15297 15.132047-4.91225 6.547846-7.36837 14.250396-7.36837 23.10765v86.55384c0 9.264796 2.45612 17.24855 7.36837 23.951263 4.91224 6.702713 11.6299 11.798351 20.15297 15.286913 8.52306 3.488562 18.06363 5.232843 28.62169 5.232843ZM5817.154167 771.005726h-47.74766c-22.84411 0-40.29779-6.012608-52.36104-18.037823-12.06326-12.025216-18.09488-29.128409-18.09488-51.30958V551.584935h-40.29779v-53.062012h20.99658c10.03098 0 16.88041-2.316199 20.54829-6.948596 3.66788-4.632398 5.50182-11.5918628 5.50182-20.8783941v-46.4027698h59.99023v74.2297599h55.63768v53.062012h-55.63768v166.35878h51.46445v53.062011Z"/></g><g fill="#909FBD" fill-rule="nonzero"><path d="M6095.867979 777.265576c-30.929746 0-57.4050543-5.590122-79.425925-16.770367-22.0208706-11.180244-40.7012526-25.700978-56.041146-43.562199l46.3131106-45.14754c12.3784191 14.834541 26.33131 26.012069 41.8586729 33.532583 15.5273625 7.520515 32.6726685 11.280772 51.4359175 11.280772 21.420425 0 37.466725-4.66636 48.1389-13.999079 10.672176-9.33272 16.008263-21.734233 16.008263-37.20454 0-8.047602-1.463077-15.151065-4.389231-21.310388-2.926154-6.159323-7.997339-11.321526-15.213555-15.486609-7.216216-4.165083-17.228173-7.250178-30.03587-9.255286l-34.143896-5.314352c-24.3655979-3.988481-44.6272442-10.46297-60.7849392-19.423468-16.1576949-8.960497-28.2358912-20.722169-36.2345887-35.285015-7.9986975-14.562846-11.9980462-31.671473-11.9980462-51.325881 0-21.8116657 5.3483138-40.7202714 16.0449416-56.7258173 10.6966277-16.0055458 25.910183-28.4464547 45.6406657-37.3227267 19.7304828-8.87627201 43.1342808-13.314408 70.2113928-13.314408 27.473787 0 51.464446 4.6133792 71.971976 13.8401376 20.50753 9.2267584 38.034567 22.4746011 52.581112 39.7435282l-46.842916 44.5932819c-9.003969-11.215565-19.985876-20.2711556-32.945722-27.1667718-12.959846-6.8956163-29.188182-10.3434244-48.685007-10.3434244-19.37728 0-34.105859 3.6950505-44.1857397 11.0851514-10.0798804 7.390101-15.1198205 17.8802406-15.1198205 31.4704191 0 9.270229 1.7850354 16.872252 5.3551062 22.806069 3.5700708 5.933816 9.1112881 10.624628 16.623652 14.072436 7.512363 3.447809 17.080099 6.299246 28.703206 8.554314l34.152048 6.039777c24.626424 4.238441 44.907089 10.878664 60.841994 19.920669 15.934905 9.042006 27.77401 20.661038 35.517314 34.857096 7.743305 14.196058 11.614957 31.316911 11.614957 51.36256 0 22.990822-5.349672 43.149224-16.049017 60.475207s-26.271537 30.878124-46.716578 40.656423c-20.44504 9.778299-45.178784 14.667448-74.201232 14.667448ZM6280.482924 771.005726V406.89110522h132.736537c31.723095 0 59.351748 6.75569338 82.88596 20.26708018 23.534211 13.5113867 41.755428 33.7431466 54.663653 60.6952794 12.908224 26.9521332 19.362336 60.6504502 19.362336 101.0949512 0 40.444501-6.454112 74.142818-19.362336 101.09495-12.908225 26.952133-31.129442 47.183893-54.663653 60.69528-23.534212 13.511387-51.162865 20.26708-82.88596 20.26708h-132.736537Zm68.825749-61.03354h63.910788c16.980931 0 31.773359-3.417921 44.377285-10.253765 12.603926-6.835843 22.334678-17.093683 29.192257-30.773521 6.857579-13.679838 10.286368-30.800691 10.286368-51.36256v-57.267849c0-20.806394-3.428789-38.01419-10.286368-51.623387-6.857579-13.6091967-16.588331-23.8059058-29.192257-30.5901272-12.603926-6.7842213-27.396354-10.176332-44.377285-10.176332h-63.910788V709.972186ZM6840.346068 771.005726l-103.743976-164.581895-48.701308 57.38196v107.199935h-68.825749V406.89110522h68.825749V586.079318h2.673477l51.798631-68.263341 90.205419-110.92487178h79.103967L6785.246345 558.456098l136.934223 212.549628z"/></g><g fill="#000" fill-rule="nonzero"><path d="M981.587513 771.005726V406.8911048h168.836637c29.908173 0 53.434234 8.5203516 70.578181 25.561055 17.143948 17.0407034 25.715921 39.6973401 25.715921 67.9699102 0 18.328537-3.094604 33.066626-9.283814 44.214267-6.18921 11.147642-14.258548 19.329733-24.208014 24.546275-9.949467 5.216542-20.518398 8.275826-31.706794 9.177853v3.129926c8.080206.103244 16.635878 1.745639 25.667016 4.927186 9.031138 3.181547 17.590886 8.076131 25.679242 14.683751 8.088357 6.607619 14.689185 15.311365 19.802482 26.111237 5.113298 10.799872 7.669947 23.972998 7.669947 39.51938 0 19.333808-4.086291 36.877147-12.258873 52.630016-8.172582 15.75287-19.301205 28.298381-33.385868 37.636535-14.084663 9.338153-30.169 14.00723-48.253012 14.00723H981.587513Zm68.825749-155.778981v97.312958h96.212594c8.596426 0 16.006904-1.559529 22.231434-4.678586 6.22453-3.119058 11.034888-7.626476 14.431074-13.522255 3.396186-5.895779 5.094279-13.09026 5.094279-21.583442v-17.736242c0-8.493182-1.698093-15.687663-5.094279-21.583442-3.396186-5.895779-8.206544-10.404556-14.431074-13.52633-6.22453-3.121774-13.635008-4.682661-22.231434-4.682661h-96.212594Zm0-149.8696173v93.1886293h85.233403c8.292128 0 15.420044-1.509265 21.383746-4.527795 5.963703-3.01853 10.532253-7.407761 13.705649-13.167693 3.173396-5.759931 4.760094-12.682717 4.760094-20.768357v-16.260939c0-8.08564-1.586698-15.008426-4.760094-20.7683573-3.173396-5.7599316-7.741946-10.1491625-13.705649-13.1676927-5.963702-3.0185302-13.091618-4.5277953-21.383746-4.5277953h-85.233403ZM1434.156678 642.638042l47.552039-144.115119h62.916385l-109.840809 320.735815c-4.314515 12.987015-9.677772 23.627946-16.089771 31.922791-6.412 8.294844-14.546545 14.394395-24.403635 18.29865-9.857091 3.904256-22.251811 5.856384-37.184162 5.856384h-40.14292v-53.062012h48.872476l12.625662-38.260074-97.370014-285.491554h66.372344l47.397173 144.115119 17.671036 68.825749h2.975059l18.649137-68.825749ZM1716.86465 771.005726h-47.747659c-22.844106 0-40.297786-6.012608-52.361039-18.037824-12.063253-12.025216-18.094879-29.128409-18.094879-51.30958V551.584934h-40.297786v-53.062011h20.996581c10.030975 0 16.880403-2.316199 20.548284-6.948597 3.667881-4.632398 5.501822-11.5918625 5.501822-20.8783938v-46.4027699h59.990231v74.2297607h55.637679v53.062011h-55.637679v166.35878h51.464445v53.062012ZM1883.077762 777.265576c-26.79455 0-49.785371-5.825139-68.972464-17.475415-19.187093-11.650277-33.884428-28.178836-44.092005-49.585676s-15.311366-46.61605-15.311366-75.62763c0-28.761621 4.981526-53.78472 14.944578-75.069298 9.963051-21.284577 24.353371-37.813136 43.170959-49.585675 18.817588-11.77254 41.501394-17.65881 68.051418-17.65881 28.413852 0 51.742933 6.263926 69.987245 18.791777 18.244312 12.527852 31.816826 29.193616 40.717556 49.997294 8.90072 20.803677 13.35109 43.654576 13.35109 68.552695v22.031739h-181.030309v6.634789c0 19.621805 5.571104 35.453466 16.713311 47.494983 11.142208 12.041518 27.64088 18.062276 49.496017 18.062276 16.546218 0 30.185302-3.508939 40.91725-10.526818 10.731948-7.017879 20.189647-15.794982 28.373097-26.33131l35.985984 40.142919c-11.14492 15.13884-26.362551 27.282243-45.652888 36.43021-19.290337 9.147966-41.506828 13.72195-66.649473 13.72195Zm-1.100364-234.605819c-11.769823 0-22.008645 2.68027-30.716466 8.04081s-15.445854 12.80498-20.2141 22.33332c-4.768245 9.52834-7.152368 20.644736-7.152368 33.349189v4.018368h111.528035v-4.996469c0-12.568606-2.036353-23.538287-6.10906-32.909044-4.072706-9.370756-10.090748-16.686141-18.054125-21.946154-7.963377-5.260013-17.724016-7.89002-29.281916-7.89002ZM2149.168893 777.265576c-25.91969 0-47.76667-4.413684-65.54095-13.241051-17.77428-8.827366-33.48368-21.117485-47.1282-36.870354l40.76238-39.441947c9.94404 11.394883 20.98164 20.375758 33.11282 26.942623 12.13118 6.566866 25.98354 9.850299 41.55709 9.850299 16.01913 0 27.57431-2.783515 34.66555-8.350543 7.09124-5.567028 10.63686-13.222032 10.63686-22.96501 0-7.976962-2.5322-14.319679-7.59659-19.028152-5.0644-4.708472-13.64452-7.913113-25.74038-9.613923l-27.27273-3.496713c-19.29034-2.678912-35.72652-7.316744-49.30855-13.913496-13.58202-6.596752-23.86703-15.566758-30.85503-26.91002-6.98799-11.343261-10.48199-25.239096-10.48199-41.687505 0-26.533723 9.43597-47.546605 28.3079-63.038648 18.87192-15.492042 43.88415-23.238064 75.03669-23.238064 17.79058 0 33.01229 1.677716 45.66512 5.033148 12.65283 3.355432 23.8059 8.250015 33.45922 14.68375s18.74559 14.171606 27.27681 23.213612l-39.41749 39.384891c-7.87372-8.596427-17.36538-15.671362-28.47499-21.224805-11.1096-5.553444-23.27474-8.330165-36.49541-8.330165-14.09553 0-24.50009 2.57295-31.21367 7.718851-6.71358 5.145902-10.07037 12.068687-10.07037 20.768358 0 8.944195 2.71831 15.724341 8.15492 20.340437 5.43662 4.616097 14.53975 7.945717 27.30941 9.988863l27.85145 3.871652c29.90817 4.026518 52.04179 12.754717 66.40087 26.184595 14.35907 13.429878 21.53861 31.507098 21.53861 54.231658 0 17.388473-4.61202 32.832969-13.83606 46.333488-9.22404 13.500519-22.23279 24.009677-39.02625 31.527475-16.79347 7.517797-36.55248 11.276696-59.27704 11.276696ZM2423.659353 777.265576c-40.11304 0-71.05637-12.876979-92.82999-38.630938-21.77363-25.753958-32.66045-60.439886-32.66045-104.057783 0-43.612464 10.88682-78.234543 32.66045-103.866239 21.77362-25.631696 52.71695-38.447544 92.82999-38.447544 27.51726 0 50.24453 6.156607 68.18183 18.469819 17.9373 12.313212 30.85639 29.158295 38.75728 50.535249l-54.44766 24.35473c-3.15166-11.460091-9.09091-20.893337-17.81775-28.29974-8.72684-7.406402-20.28474-11.109604-34.6737-11.109604-18.31224 0-32.16053 5.848233-41.54487 17.544698-9.38434 11.696465-14.07651 27.162696-14.07651 46.398694v49.5816c0 18.888229 4.69217 34.267518 14.07651 46.137868 9.38434 11.870349 23.23263 17.805524 41.54487 17.805524 15.81807 0 28.15846-4.12297 37.02114-12.36891 8.86269-8.24594 15.71755-18.424989 20.56459-30.537147l51.21992 24.387334c-8.93876 24.034129-22.68924 42.059727-41.25144 54.076792-18.56219 12.017064-41.08026 18.025597-67.55421 18.025597ZM2817.173653 771.005726h-37.0782c-9.90599 0-18.76596-2.347444-26.57991-7.042332-7.81394-4.694888-13.89855-11.52258-18.25382-20.483077-4.35527-8.960498-6.5329-19.564749-6.5329-31.812755v-5.860459l16.53807 18.437215h-18.62469c-4.58077 17.3287-13.92436 30.497752-28.03076 39.507154-14.1064 9.009403-31.28295 13.514104-51.52965 13.514104-27.78352 0-49.15776-7.36429-64.12271-22.09287-14.96496-14.72858-22.44743-34.123519-22.44743-58.184819 0-18.752381 4.60251-34.260725 13.80753-46.525032 9.20502-12.264307 22.48547-21.500575 39.84134-27.708803 17.35587-6.208229 38.33886-9.312343 62.94899-9.312343h46.22345v-19.985876c0-14.95952-3.98984-26.684513-11.96952-35.174978-7.97968-8.490466-20.91371-12.735698-38.80211-12.735698-15.50291 0-28.08374 3.405695-37.74249 10.217086-9.65875 6.811391-17.64794 14.955445-23.96757 24.432163l-39.75168-35.611049c9.99838-15.731134 23.36441-28.383965 40.09809-37.958493 16.73369-9.574528 38.74234-14.361792 66.02594-14.361792 36.75488 0 64.75168 8.427976 83.9904 25.283927 19.23871 16.855951 28.85807 40.89008 28.85807 72.102389v128.294326h27.10156v53.062012Zm-93.84069-117.437399h-42.79195c-17.51888 0-30.61594 2.863664-39.29115 8.590993-8.67522 5.727328-13.01283 14.09553-13.01283 25.104607v8.75401c0 10.759117 3.64207 18.933058 10.92621 24.521822 7.28414 5.588764 17.33278 8.383145 30.14591 8.383145 10.23203 0 19.36369-1.499755 27.39499-4.499267 8.0313-2.999511 14.47726-7.440364 19.33789-13.322559 4.86062-5.882194 7.29093-13.099769 7.29093-21.652724v-35.880027ZM2969.834873 771.005726h-35.56214c-22.84411 0-39.74625-5.740913-50.70642-17.222739-10.96017-11.481826-16.44026-27.650389-16.44026-48.505689V384.981629h66.73913v332.962085h35.96969v53.062012ZM3126.812083 777.265576c-26.79455 0-49.78537-5.825139-68.97246-17.475415-19.18709-11.650277-33.88443-28.178836-44.092-49.585676-10.20758-21.40684-15.31137-46.61605-15.31137-75.62763 0-28.761621 4.98153-53.78472 14.94458-75.069298 9.96305-21.284577 24.35337-37.813136 43.17096-49.585675 18.81758-11.77254 41.50139-17.65881 68.05142-17.65881 28.41385 0 51.74293 6.263926 69.98724 18.791777 18.24431 12.527852 31.81683 29.193616 40.71755 49.997294 8.90073 20.803677 13.35109 43.654576 13.35109 68.552695v22.031739h-181.0303v6.634789c0 19.621805 5.5711 35.453466 16.71331 47.494983 11.14221 12.041518 27.64088 18.062276 49.49601 18.062276 16.54622 0 30.18531-3.508939 40.91725-10.526818 10.73195-7.017879 20.18965-15.794982 28.3731-26.33131l35.98599 40.142919c-11.14492 15.13884-26.36256 27.282243-45.65289 36.43021-19.29034 9.147966-41.50683 13.72195-66.64948 13.72195Zm-1.10036-234.605819c-11.76982 0-22.00864 2.68027-30.71647 8.04081-8.70782 5.36054-15.44585 12.80498-20.2141 22.33332-4.76824 9.52834-7.15236 20.644736-7.15236 33.349189v4.018368h111.52803v-4.996469c0-12.568606-2.03635-23.538287-6.10906-32.909044-4.0727-9.370756-10.09075-16.686141-18.05412-21.946154-7.96338-5.260013-17.72402-7.89002-29.28192-7.89002Z"/></g></g></svg>