<svg width="315" height="93" xmlns="http://www.w3.org/2000/svg"><g transform="translate(0, 17)"><path d="M30.075 69.704a9.075 9.075 0 0 0 8.218 0L61.2 57.77a8.883 8.883 0 0 0 4.808-7.912V22.056a8.817 8.817 0 0 0-4.808-7.869L38.293 2.254a8.815 8.815 0 0 0-8.218 0L7.17 14.187a8.817 8.817 0 0 0-4.808 7.869v27.802a8.883 8.883 0 0 0 4.808 7.912l22.906 11.934Zm6.295-3.322a5.046 5.046 0 0 1-4.546-.088L8.918 54.404l-.175-.087c-1.574-.918-2.58-2.623-2.58-4.459V21.881c.088-1.836 1.137-3.497 2.755-4.328L31.824 5.62l.175-.088a5.338 5.338 0 0 1 4.546.088L59.45 17.553l.175.088c1.574.874 2.579 2.579 2.579 4.459v27.933c-.044 1.836-1.137 3.497-2.754 4.371l-22.906 11.89-.175.088Zm.962-15.693c.437 0 .83-.35.874-.787l1.224-13.639h8.306a.568.568 0 0 0 .524-.35c.088-.175.044-.393-.087-.568L34.272 19.608 20.37 35.345c-.131.175-.175.393-.088.568.088.219.306.35.525.35h8.305l1.224 13.639a.894.894 0 0 0 .875.787h6.12Zm50.053 2.142c1.88 0 3.672-.438 5.333-1.312 1.662-.83 2.973-1.967 4.066-3.366L96.828 52h5.114l-.044-30.469h-5.114v17.792c0 1.53-.394 2.929-1.093 4.196-.787 1.224-1.792 2.274-3.016 3.017a8.575 8.575 0 0 1-4.197 1.093 8.575 8.575 0 0 1-4.196-1.093c-1.268-.743-2.273-1.793-3.017-3.017-.786-1.267-1.136-2.666-1.136-4.196V21.531h-5.115V40.46c0 2.273.525 4.37 1.661 6.207 1.093 1.88 2.58 3.366 4.46 4.502 1.879 1.093 3.933 1.662 6.25 1.662Zm24.875 11.321V46.798c1.005 1.792 2.404 3.235 4.109 4.328 1.748 1.136 3.803 1.66 6.163 1.66 2.23 0 4.284-.393 6.252-1.223a16.386 16.386 0 0 0 5.114-3.497c1.443-1.443 2.58-3.148 3.41-5.115a15.818 15.818 0 0 0 1.268-6.25c0-2.23-.438-4.285-1.268-6.208-.83-1.924-1.967-3.629-3.41-5.071a16.257 16.257 0 0 0-5.114-3.453 15.818 15.818 0 0 0-6.252-1.268c-2.36 0-4.415.568-6.163 1.66-1.705 1.138-3.104 2.58-4.11 4.372v-5.202h-5.114v42.621h5.115Zm10.229-16.349c-2.011 0-3.716-.524-5.202-1.486-1.486-1.005-2.623-2.36-3.41-4.021a13.117 13.117 0 0 1-1.224-5.596c0-2.054.437-3.89 1.224-5.552a9.584 9.584 0 0 1 3.41-4.021c1.486-.962 3.235-1.443 5.202-1.443 2.01 0 3.847.481 5.464 1.443a11.187 11.187 0 0 1 3.934 4.021c1.006 1.662 1.487 3.541 1.487 5.552 0 2.098-.525 3.934-1.487 5.64-1.005 1.66-2.317 3.015-3.978 3.977-1.66 1.006-3.453 1.486-5.42 1.486ZM148.412 52V12.22h-5.114V52h5.114Zm20.46.787c2.098 0 4.065-.437 5.9-1.224a16.077 16.077 0 0 0 4.853-3.454 16.519 16.519 0 0 0 3.279-5.114c.83-1.923 1.224-4.022 1.224-6.207 0-2.973-.7-5.683-2.099-8.131-1.355-2.405-3.19-4.372-5.507-5.814-2.317-1.443-4.853-2.142-7.65-2.142-2.142 0-4.066.393-5.946 1.224-1.836.874-3.453 2.01-4.852 3.453-1.355 1.486-2.491 3.191-3.278 5.115-.787 1.923-1.137 4.021-1.137 6.295 0 2.928.656 5.639 2.055 8.043 1.355 2.404 3.19 4.371 5.508 5.814 2.273 1.442 4.852 2.142 7.65 2.142Zm0-5.115c-1.836 0-3.541-.48-5.071-1.442-1.53-.962-2.754-2.273-3.672-3.934-.918-1.618-1.355-3.498-1.355-5.508 0-2.011.393-3.804 1.311-5.465a10.733 10.733 0 0 1 3.628-4.021c1.487-1.006 3.235-1.487 5.159-1.487 1.88 0 3.584.481 5.114 1.487a11.373 11.373 0 0 1 3.628 3.978c.918 1.66 1.355 3.497 1.355 5.508 0 1.967-.437 3.759-1.31 5.42a10.942 10.942 0 0 1-3.63 3.978c-1.53 1.005-3.278 1.486-5.157 1.486Zm34.404 5.115c2.273 0 4.284-.525 5.945-1.618 1.617-1.049 2.841-2.404 3.803-4.021l.175-.306.218 5.158h5.115V21.531h-5.115l.175 5.202c-1.136-1.748-2.579-3.234-4.415-4.371-1.792-1.093-3.89-1.661-6.295-1.661-2.186 0-4.24.393-6.164 1.224-1.88.83-3.584 1.967-5.027 3.41-1.442 1.442-2.579 3.147-3.41 5.07-.786 1.924-1.18 3.978-1.18 6.164 0 2.23.394 4.328 1.224 6.295.831 1.967 2.011 3.672 3.498 5.158 1.486 1.486 3.19 2.667 5.158 3.497a15.874 15.874 0 0 0 6.295 1.268Zm-.132-4.94c-1.923 0-3.715-.524-5.376-1.486-1.662-1.006-2.973-2.317-3.935-3.978a10.76 10.76 0 0 1-1.53-5.595c0-2.055.481-3.935 1.443-5.596 1.005-1.705 2.273-3.016 3.934-4.022 1.661-1.005 3.454-1.486 5.464-1.486 2.011 0 3.76.481 5.202 1.486 1.487.962 2.623 2.317 3.454 3.978.787 1.662 1.18 3.541 1.18 5.64 0 2.01-.393 3.89-1.18 5.551a9.584 9.584 0 0 1-3.41 4.022c-1.486.962-3.235 1.486-5.246 1.486Zm35.104 4.94c2.317 0 4.371-.525 6.12-1.618 1.748-1.136 3.147-2.579 4.153-4.327V52h5.114V12.22h-5.114v14.47c-1.006-1.793-2.405-3.235-4.153-4.328-1.749-1.093-3.803-1.661-6.12-1.661-2.23 0-4.328.48-6.251 1.268-1.924.83-3.628 2.01-5.115 3.453a15.963 15.963 0 0 0-3.453 5.158c-.83 1.924-1.224 3.978-1.224 6.208 0 2.185.393 4.24 1.224 6.207.83 1.923 1.967 3.628 3.453 5.07 1.487 1.487 3.191 2.624 5.115 3.498 1.923.83 4.021 1.224 6.25 1.224Zm0-4.94c-1.924 0-3.716-.524-5.377-1.486a11.81 11.81 0 0 1-3.934-3.978 10.76 10.76 0 0 1-1.53-5.595c0-2.055.524-3.935 1.486-5.596 1.006-1.705 2.273-3.016 3.89-3.978 1.662-1.049 3.454-1.53 5.465-1.53 2.054 0 3.76.481 5.246 1.486 1.442.962 2.579 2.317 3.41 3.978.83 1.705 1.223 3.585 1.223 5.64 0 2.054-.393 3.89-1.224 5.595a9.733 9.733 0 0 1-3.41 3.978c-1.486.962-3.19 1.486-5.245 1.486Zm24.175 4.94c.787 0 1.486-.262 2.01-.83.569-.525.831-1.225.831-2.012 0-.743-.262-1.398-.83-1.923-.525-.568-1.224-.83-2.011-.83-.743 0-1.399.262-1.967.83a2.64 2.64 0 0 0-.787 1.923c0 .787.262 1.487.787 2.011.568.569 1.224.83 1.967.83Zm14.208-36.195c.787 0 1.443-.263 1.967-.787.568-.525.83-1.18.83-1.967 0-.787-.262-1.487-.83-2.011a2.842 2.842 0 0 0-2.01-.787c-.788 0-1.443.262-2.012.787a2.806 2.806 0 0 0-.83 2.01c0 .788.306 1.443.83 1.968.569.524 1.224.787 2.055.787Zm-10.054 50.533c2.36 0 4.502-.568 6.426-1.705a12.12 12.12 0 0 0 4.459-4.459c1.092-1.836 1.66-3.934 1.66-6.163V21.53h-5.114v33.267c0 1.355-.306 2.579-.962 3.672-.655 1.093-1.53 1.967-2.666 2.579-1.137.655-2.404.961-3.803.961v5.115Zm34.841-15.562c1.792-.743 3.235-1.792 4.371-3.191 1.093-1.4 1.662-3.017 1.662-4.896.043-1.705-.438-3.104-1.443-4.284-1.005-1.137-2.273-2.098-3.89-2.885-1.618-.787-3.323-1.443-5.159-2.055l-3.497-1.049c-1.05-.35-1.923-.743-2.58-1.268-.655-.524-1.004-1.311-1.004-2.317 0-1.049.306-1.923.918-2.622.611-.7 1.442-1.224 2.491-1.574 1.006-.35 2.098-.48 3.279-.437.961 0 1.923.175 2.797.524.918.306 1.749.743 2.448 1.312.7.568 1.268 1.18 1.574 1.923l4.153-2.404c-1.005-1.792-2.535-3.235-4.546-4.284-2.055-1.05-4.284-1.574-6.732-1.574-1.967 0-3.803.35-5.508 1.093-1.705.787-3.06 1.836-4.11 3.235-1.048 1.355-1.573 3.016-1.573 4.896 0 1.792.48 3.235 1.399 4.371.962 1.18 2.273 2.099 3.89 2.842a34.888 34.888 0 0 0 5.596 1.923c1.093.306 2.098.612 3.147.962 1.006.306 1.88.787 2.536 1.355.699.568 1.049 1.399 1.049 2.404 0 .962-.306 1.749-.962 2.448-.612.656-1.399 1.18-2.36 1.53a9.326 9.326 0 0 1-3.148.525 8.877 8.877 0 0 1-3.147-.569 10.336 10.336 0 0 1-2.754-1.442c-.787-.612-1.312-1.268-1.618-1.967l-4.371 1.923c.524 1.224 1.355 2.36 2.535 3.322 1.137.962 2.536 1.705 4.066 2.274 1.573.568 3.147.874 4.808.918 2.011.087 3.934-.219 5.683-.962Z" fill="#525862" fill-rule="nonzero" stroke="#525862" stroke-width=".651"/></g></svg>
